<svg xmlns="http://www.w3.org/2000/svg" xmlns:xlink="http://www.w3.org/1999/xlink" width="1080" zoomAndPan="magnify" viewBox="0 0 810 809.999993" height="1080" preserveAspectRatio="xMidYMid meet" version="1.0"><defs><g/><clipPath id="e863413fce"><path d="M 45.03125 493 L 102 493 L 102 530 L 45.03125 530 Z M 45.03125 493 " clip-rule="nonzero"/></clipPath><clipPath id="04de45accc"><path d="M 402 517 L 410 517 L 410 644.3125 L 402 644.3125 Z M 402 517 " clip-rule="nonzero"/></clipPath><clipPath id="a23feb0eea"><path d="M 709 492.0625 L 765.03125 492.0625 L 765.03125 531 L 709 531 Z M 709 492.0625 " clip-rule="nonzero"/></clipPath><clipPath id="f57017b0e3"><rect x="0" width="512" y="0" height="190"/></clipPath><clipPath id="a281568e11"><rect x="0" width="188" y="0" height="343"/></clipPath><clipPath id="74fb17ad47"><path d="M 472 30 L 495.960938 30 L 495.960938 106 L 472 106 Z M 472 30 " clip-rule="nonzero"/></clipPath><clipPath id="407ea9f4b9"><rect x="0" width="496" y="0" height="136"/></clipPath><clipPath id="04118b9585"><rect x="0" width="488" y="0" height="40"/></clipPath></defs><g clip-path="url(#e863413fce)"><path fill="#ffffff" d="M 46.691406 528.253906 C 47.535156 529.085938 48.378906 529.921875 48.378906 529.921875 L 67.304688 512.890625 C 67.304688 512.890625 69.382812 513.835938 71.457031 514.777344 C 73.546875 515.707031 75.628906 516.628906 75.628906 516.628906 C 77.082031 517.277344 78.558594 517.632812 79.554688 517.632812 C 80.050781 517.632812 80.425781 517.542969 80.617188 517.355469 L 101.058594 497.785156 C 101.058594 497.785156 98.882812 497.507812 95.617188 497.085938 C 93.992188 496.867188 92.074219 496.621094 90 496.359375 C 87.933594 496.09375 85.726562 495.800781 83.527344 495.496094 C 79.070312 494.929688 74.554688 494.355469 71.195312 493.871094 C 67.824219 493.390625 65.578125 493.070312 65.578125 493.070312 L 51.710938 504.480469 C 51.328125 504.800781 52.6875 505.90625 54.777344 506.9375 C 54.777344 506.9375 56.800781 507.921875 58.832031 508.910156 C 60.875 509.878906 62.914062 510.847656 62.914062 510.847656 L 45.046875 526.558594 C 45.046875 526.558594 45.25 526.769531 45.550781 527.089844 C 45.851562 527.414062 46.265625 527.835938 46.691406 528.253906 " fill-opacity="1" fill-rule="nonzero"/></g><path fill="#ffffff" d="M 89.535156 562.699219 C 90.851562 563.550781 92.171875 564.402344 92.171875 564.402344 L 118.6875 533.71875 C 118.6875 533.71875 120.703125 534.429688 122.722656 535.148438 C 124.753906 535.847656 126.78125 536.550781 126.78125 536.550781 C 127.84375 536.917969 128.9375 537.097656 129.886719 537.097656 C 131.007812 537.097656 131.925781 536.847656 132.324219 536.359375 L 158.308594 504.449219 C 158.308594 504.449219 156.316406 504.21875 153.265625 503.914062 C 150.226562 503.605469 146.179688 503.152344 142.113281 502.675781 C 138.015625 502.242188 133.90625 501.773438 130.832031 501.398438 C 129.296875 501.203125 127.996094 501.0625 127.085938 500.96875 C 126.179688 500.859375 125.65625 500.800781 125.65625 500.800781 L 102.113281 525.820312 C 101.453125 526.515625 102.742188 527.800781 105 528.671875 C 105 528.671875 106.992188 529.417969 108.976562 530.171875 C 110.972656 530.910156 112.972656 531.648438 112.972656 531.648438 L 86.945312 560.960938 C 86.945312 560.960938 88.238281 561.832031 89.535156 562.699219 " fill-opacity="1" fill-rule="nonzero"/><path fill="#ffffff" d="M 351.835938 517.375 C 350.941406 517.34375 350.074219 517.3125 349.226562 517.28125 C 347.53125 517.226562 345.949219 517.171875 344.589844 517.125 C 343.234375 517.078125 342.097656 517.070312 341.304688 517.058594 C 340.507812 517.042969 340.054688 517.035156 340.054688 517.035156 L 328.398438 574.890625 C 328.070312 576.523438 329.921875 578.007812 332.535156 578.210938 L 341.691406 578.90625 L 331.59375 640.445312 L 339.15625 641.128906 L 348.21875 579.296875 L 357.402344 579.835938 C 357.519531 579.84375 357.640625 579.84375 357.757812 579.84375 C 360.230469 579.84375 362.3125 578.597656 362.492188 577.011719 L 368.984375 517.675781 C 368.984375 517.675781 361.761719 517.546875 354.539062 517.417969 C 353.636719 517.40625 352.726562 517.390625 351.835938 517.375 " fill-opacity="1" fill-rule="nonzero"/><path fill="#ffffff" d="M 139.269531 590.226562 L 145.367188 593.054688 L 201.183594 508.628906 L 195.238281 508.117188 L 139.269531 590.226562 " fill-opacity="1" fill-rule="nonzero"/><path fill="#ffffff" d="M 199.828125 613.8125 C 200.457031 614.015625 201.300781 614.289062 202.148438 614.550781 C 203.847656 615.070312 205.546875 615.59375 205.546875 615.59375 L 230.320312 564.269531 C 230.320312 564.269531 232.519531 564.699219 234.726562 565.132812 C 236.929688 565.574219 239.148438 565.96875 239.148438 565.96875 C 239.640625 566.058594 240.132812 566.101562 240.613281 566.101562 C 242.609375 566.101562 244.371094 565.367188 244.871094 564.214844 L 267.101562 513.683594 C 267.101562 513.683594 265.246094 513.582031 262.460938 513.4375 C 261.796875 513.394531 261.0625 513.355469 260.289062 513.316406 C 259.488281 513.261719 258.636719 513.203125 257.765625 513.140625 C 255.996094 513.015625 254.113281 512.875 252.234375 512.738281 C 248.457031 512.464844 244.644531 512.222656 241.792969 512 C 238.945312 511.777344 237.046875 511.625 237.046875 511.625 L 212.082031 557.792969 C 211.375 559.082031 212.820312 560.59375 215.316406 561.140625 C 215.316406 561.140625 217.5 561.605469 219.683594 562.078125 C 221.878906 562.539062 224.066406 562.996094 224.066406 562.996094 L 198.78125 613.46875 C 198.78125 613.46875 199.199219 613.605469 199.828125 613.8125 " fill-opacity="1" fill-rule="nonzero"/><g clip-path="url(#04de45accc)"><path fill="#ffffff" d="M 407.824219 517.890625 C 407.824219 517.890625 407.738281 517.890625 407.59375 517.890625 C 407.449219 517.890625 407.242188 517.890625 406.996094 517.886719 C 406.699219 517.878906 406.335938 517.875 405.957031 517.875 C 405.703125 517.875 405.4375 517.878906 405.171875 517.878906 C 403.851562 517.878906 402.53125 517.890625 402.53125 517.890625 L 402.167969 644.039062 C 402.167969 644.039062 404.023438 644.054688 405.882812 644.074219 C 406.5 644.078125 407.117188 644.085938 407.667969 644.085938 C 408.765625 644.085938 409.589844 644.074219 409.589844 644.074219 L 407.824219 517.890625 " fill-opacity="1" fill-rule="nonzero"/></g><path fill="#ffffff" d="M 267.152344 630.953125 C 268.652344 631.261719 270.15625 631.539062 270.15625 631.539062 L 288.121094 573.640625 C 288.121094 573.640625 290.609375 573.960938 293.097656 574.28125 C 294.339844 574.453125 295.59375 574.59375 296.53125 574.699219 C 297.464844 574.800781 298.09375 574.875 298.09375 574.875 C 298.386719 574.90625 298.675781 574.921875 298.960938 574.921875 C 301.21875 574.921875 303.183594 573.9375 303.5625 572.527344 L 318.71875 516.296875 C 318.71875 516.296875 316.847656 516.230469 314.046875 516.128906 C 311.230469 516.074219 307.53125 515.777344 303.773438 515.640625 C 301.894531 515.574219 300.007812 515.519531 298.246094 515.433594 C 296.488281 515.339844 294.847656 515.25 293.4375 515.175781 C 290.613281 515.023438 288.738281 514.921875 288.738281 514.921875 L 269.226562 568.160156 C 268.679688 569.65625 270.308594 571.179688 272.878906 571.554688 C 272.878906 571.554688 275.355469 571.914062 277.832031 572.277344 C 279.070312 572.464844 280.308594 572.640625 281.246094 572.753906 C 282.179688 572.875 282.804688 572.957031 282.804688 572.957031 L 264.144531 630.351562 C 264.144531 630.351562 265.644531 630.652344 267.152344 630.953125 " fill-opacity="1" fill-rule="nonzero"/><path fill="#ffffff" d="M 481.957031 574.558594 L 469.667969 516.617188 C 469.667969 516.617188 469.203125 516.636719 468.390625 516.667969 C 467.585938 516.707031 466.433594 516.769531 465.042969 516.800781 C 462.28125 516.886719 458.597656 517 454.902344 517.113281 C 453.058594 517.171875 451.21875 517.242188 449.492188 517.242188 C 447.765625 517.242188 446.152344 517.320312 444.773438 517.351562 C 442.023438 517.421875 440.179688 517.480469 440.179688 517.480469 L 447.15625 576.871094 C 447.339844 578.453125 449.398438 579.65625 451.851562 579.65625 C 451.984375 579.65625 452.125 579.65625 452.261719 579.644531 C 452.261719 579.644531 454.792969 579.511719 457.324219 579.378906 C 458.589844 579.304688 459.851562 579.238281 460.800781 579.183594 C 461.75 579.117188 462.382812 579.078125 462.382812 579.078125 L 472.128906 640.964844 L 478.371094 640.320312 L 467.769531 578.679688 L 477.863281 577.933594 C 480.480469 577.742188 482.300781 576.183594 481.957031 574.558594 " fill-opacity="1" fill-rule="nonzero"/><path fill="#ffffff" d="M 535.320312 571.339844 C 536.160156 571.207031 536.722656 571.125 536.722656 571.125 C 539.285156 570.71875 540.894531 569.167969 540.324219 567.664062 L 520.292969 514.269531 C 520.292969 514.269531 518.457031 514.386719 515.710938 514.566406 C 512.960938 514.765625 509.25 514.839844 505.59375 515.042969 C 503.773438 515.15625 501.949219 515.265625 500.242188 515.367188 C 499.390625 515.410156 498.566406 515.46875 497.785156 515.507812 C 497 515.539062 496.25 515.5625 495.5625 515.585938 C 492.820312 515.691406 490.992188 515.761719 490.992188 515.761719 L 506.761719 572.082031 C 507.15625 573.492188 509.128906 574.476562 511.375 574.476562 C 511.664062 574.476562 511.964844 574.457031 512.261719 574.421875 C 512.261719 574.421875 512.828125 574.359375 513.679688 574.261719 C 514.527344 574.160156 515.667969 574.039062 516.796875 573.882812 C 519.050781 573.574219 521.300781 573.265625 521.300781 573.265625 L 539.785156 631.328125 C 539.785156 631.328125 541.601562 630.972656 543.429688 630.621094 C 544.34375 630.445312 545.25 630.265625 545.925781 630.121094 C 546.605469 629.980469 547.058594 629.886719 547.058594 629.886719 L 527.71875 572.398438 C 527.71875 572.398438 529.980469 572.089844 532.230469 571.789062 C 533.359375 571.628906 534.480469 571.488281 535.320312 571.339844 " fill-opacity="1" fill-rule="nonzero"/><g clip-path="url(#a23feb0eea)"><path fill="#ffffff" d="M 754.992188 506.503906 C 757.128906 505.515625 758.539062 504.4375 758.152344 504.109375 L 744.285156 492.121094 L 709.070312 496.492188 L 729.503906 516.394531 C 729.703125 516.59375 730.09375 516.683594 730.613281 516.683594 C 731.609375 516.683594 733.078125 516.339844 734.519531 515.71875 C 734.519531 515.71875 736.445312 514.902344 738.359375 514.082031 C 739.320312 513.671875 740.28125 513.261719 741 512.953125 C 741.707031 512.628906 742.175781 512.414062 742.175781 512.414062 L 761.191406 530.046875 C 761.191406 530.046875 762.207031 529.042969 763.222656 528.042969 C 763.726562 527.542969 764.234375 527.039062 764.613281 526.660156 C 764.976562 526.28125 765.230469 526.019531 765.230469 526.019531 L 747.496094 509.957031 L 754.992188 506.503906 " fill-opacity="1" fill-rule="nonzero"/></g><path fill="#ffffff" d="M 554.945312 512.011719 L 605.265625 614.941406 L 612.070312 612.828125 L 560.644531 511.578125 L 554.945312 512.011719 " fill-opacity="1" fill-rule="nonzero"/><path fill="#ffffff" d="M 651.460938 545.765625 C 653.835938 545.03125 655.144531 543.609375 654.382812 542.570312 L 627.347656 505.730469 C 627.347656 505.730469 626.851562 505.773438 625.984375 505.859375 C 625.125 505.957031 623.910156 506.082031 622.4375 506.246094 C 619.53125 506.601562 615.566406 506.921875 611.648438 507.253906 C 607.734375 507.609375 603.894531 508.027344 601.003906 508.304688 C 599.558594 508.445312 598.328125 508.515625 597.480469 508.589844 C 596.628906 508.648438 596.148438 508.691406 596.148438 508.691406 L 622.785156 551.1875 C 623.3125 552.027344 624.746094 552.507812 626.394531 552.507812 C 627.105469 552.507812 627.847656 552.417969 628.585938 552.230469 L 637.042969 549.882812 L 665.402344 592.226562 C 665.402344 592.226562 666.949219 591.550781 668.457031 590.832031 C 669.980469 590.125 671.488281 589.410156 671.488281 589.410156 L 643.0625 548.210938 C 643.0625 548.210938 645.175781 547.617188 647.292969 547.03125 C 649.378906 546.398438 651.460938 545.765625 651.460938 545.765625 " fill-opacity="1" fill-rule="nonzero"/><path fill="#ffffff" d="M 703.734375 528.230469 C 704.554688 527.910156 705.085938 527.691406 705.085938 527.691406 C 707.332031 526.804688 708.609375 525.511719 707.949219 524.804688 L 684.265625 499.507812 C 684.265625 499.507812 682.128906 499.746094 678.996094 500.171875 C 675.824219 500.558594 671.539062 500.96875 667.359375 501.449219 C 665.285156 501.699219 663.207031 501.945312 661.253906 502.175781 C 659.316406 502.410156 657.515625 502.628906 655.9375 502.761719 C 654.359375 502.90625 653.085938 503.0625 652.175781 503.152344 C 651.273438 503.25 650.761719 503.304688 650.761719 503.304688 L 677.070312 535.5625 C 677.484375 536.0625 678.429688 536.320312 679.582031 536.320312 C 680.523438 536.320312 681.601562 536.152344 682.65625 535.800781 C 682.65625 535.800781 683.214844 535.609375 684.058594 535.324219 C 684.910156 535.058594 686.019531 534.648438 687.117188 534.25 C 689.332031 533.449219 691.542969 532.644531 691.542969 532.644531 L 718.289062 563.535156 C 718.289062 563.535156 719.371094 562.828125 720.449219 562.128906 C 721.539062 561.433594 722.601562 560.707031 722.601562 560.707031 L 696.269531 530.9375 C 696.269531 530.9375 698.480469 530.132812 700.695312 529.328125 C 701.800781 528.929688 702.90625 528.53125 703.734375 528.230469 " fill-opacity="1" fill-rule="nonzero"/><g transform="matrix(1, 0, 0, 1, 236, 268)"><g clip-path="url(#f57017b0e3)"><g fill="#ffffff" fill-opacity="1"><g transform="translate(1.257231, 149.053588)"><g><path d="M 3.875 0 L 3.875 -1.390625 L 7.203125 -1.390625 C 10.160156 -1.390625 12.078125 -2.054688 12.953125 -3.390625 C 13.835938 -4.734375 14.28125 -7.671875 14.28125 -12.203125 L 14.28125 -87.1875 C 14.28125 -91.53125 13.863281 -94.347656 13.03125 -95.640625 C 12.195312 -96.941406 10.347656 -97.59375 7.484375 -97.59375 L 3.875 -97.59375 L 3.875 -98.984375 L 34.9375 -98.984375 C 45.007812 -98.984375 52.351562 -96.578125 56.96875 -91.765625 C 61.59375 -86.960938 63.90625 -79.753906 63.90625 -70.140625 C 63.90625 -64.597656 62.929688 -59.421875 60.984375 -54.609375 C 59.046875 -49.804688 55.835938 -45.925781 51.359375 -42.96875 C 46.878906 -40.007812 40.800781 -38.53125 33.125 -38.53125 L 26.484375 -38.53125 L 26.484375 -11.78125 C 26.484375 -7.4375 26.875 -4.617188 27.65625 -3.328125 C 28.4375 -2.035156 30.257812 -1.390625 33.125 -1.390625 L 38.8125 -1.390625 L 38.8125 0 Z M 26.484375 -39.921875 L 32.859375 -39.921875 C 37.753906 -39.921875 41.539062 -41.164062 44.21875 -43.65625 C 46.894531 -46.15625 48.765625 -49.671875 49.828125 -54.203125 C 50.898438 -58.734375 51.4375 -64 51.4375 -70 C 51.4375 -79.988281 50.140625 -87.082031 47.546875 -91.28125 C 44.960938 -95.488281 40.484375 -97.59375 34.109375 -97.59375 L 26.484375 -97.59375 Z M 26.484375 -39.921875 "/></g></g></g><g fill="#ffffff" fill-opacity="1"><g transform="translate(55.460485, 149.053588)"><g><path d="M 17.875 -89.28125 C 16.125 -89.28125 14.644531 -89.851562 13.4375 -91 C 12.238281 -92.15625 11.640625 -94.078125 11.640625 -96.765625 C 11.640625 -99.535156 12.238281 -101.472656 13.4375 -102.578125 C 14.644531 -103.691406 16.125 -104.25 17.875 -104.25 C 19.632812 -104.25 21.140625 -103.691406 22.390625 -102.578125 C 23.640625 -101.472656 24.265625 -99.535156 24.265625 -96.765625 C 24.265625 -94.078125 23.640625 -92.15625 22.390625 -91 C 21.140625 -89.851562 19.632812 -89.28125 17.875 -89.28125 Z M 2.359375 0 L 2.359375 -1.390625 L 4.15625 -1.390625 C 7.488281 -1.390625 9.726562 -1.988281 10.875 -3.1875 C 12.03125 -4.382812 12.609375 -7.25 12.609375 -11.78125 L 12.609375 -62.65625 C 12.609375 -67 12.050781 -69.796875 10.9375 -71.046875 C 9.832031 -72.296875 7.710938 -72.921875 4.578125 -72.921875 L 3.1875 -72.921875 L 3.1875 -74.296875 L 24.53125 -74.296875 L 24.53125 -11.640625 C 24.53125 -7.203125 25.109375 -4.382812 26.265625 -3.1875 C 27.421875 -1.988281 29.617188 -1.390625 32.859375 -1.390625 L 34.375 -1.390625 L 34.375 0 Z M 2.359375 0 "/></g></g></g><g fill="#ffffff" fill-opacity="1"><g transform="translate(78.472446, 149.053588)"><g><path d="M 22.1875 1.390625 C 17.28125 1.390625 13.253906 -0.410156 10.109375 -4.015625 C 6.972656 -7.617188 5.40625 -12.796875 5.40625 -19.546875 C 5.40625 -26.847656 7.4375 -32.160156 11.5 -35.484375 C 15.570312 -38.816406 21.8125 -40.710938 30.21875 -41.171875 L 39.234375 -41.59375 L 39.234375 -54.890625 C 39.234375 -62.191406 38.515625 -67.226562 37.078125 -70 C 35.648438 -72.78125 33.179688 -74.171875 29.671875 -74.171875 C 26.148438 -74.171875 23.628906 -72.691406 22.109375 -69.734375 C 20.585938 -66.773438 19.828125 -61.457031 19.828125 -53.78125 C 13.171875 -53.78125 9.84375 -56.367188 9.84375 -61.546875 C 9.84375 -65.796875 11.78125 -69.191406 15.65625 -71.734375 C 19.539062 -74.273438 24.582031 -75.546875 30.78125 -75.546875 C 37.519531 -75.546875 42.625 -73.71875 46.09375 -70.0625 C 49.5625 -66.414062 51.296875 -60.25 51.296875 -51.5625 L 51.296875 -12.0625 C 51.296875 -7.53125 51.753906 -4.617188 52.671875 -3.328125 C 53.597656 -2.035156 55.398438 -1.390625 58.078125 -1.390625 L 58.359375 -1.390625 L 58.359375 0 L 39.515625 0 L 39.515625 -13.3125 L 39.234375 -13.3125 C 36.367188 -3.507812 30.6875 1.390625 22.1875 1.390625 Z M 26.203125 -1.796875 C 28.785156 -1.796875 31.046875 -2.8125 32.984375 -4.84375 C 34.929688 -6.882812 36.457031 -9.632812 37.5625 -13.09375 C 38.675781 -16.5625 39.234375 -20.421875 39.234375 -24.671875 L 39.234375 -40.203125 L 32.859375 -39.78125 C 26.847656 -39.414062 22.78125 -37.613281 20.65625 -34.375 C 18.53125 -31.144531 17.46875 -26.203125 17.46875 -19.546875 C 17.46875 -13.441406 18.207031 -8.957031 19.6875 -6.09375 C 21.164062 -3.226562 23.335938 -1.796875 26.203125 -1.796875 Z M 26.203125 -1.796875 "/></g></g></g><g fill="#ffffff" fill-opacity="1"><g transform="translate(128.239599, 149.053588)"><g><path d="M 2.90625 0 L 2.90625 -1.390625 L 3.75 -1.390625 C 6.238281 -1.390625 8.109375 -1.617188 9.359375 -2.078125 C 10.609375 -2.535156 11.4375 -3.503906 11.84375 -4.984375 C 12.257812 -6.460938 12.46875 -8.632812 12.46875 -11.5 L 12.46875 -63.21875 C 12.46875 -65.988281 12.257812 -68.066406 11.84375 -69.453125 C 11.4375 -70.835938 10.628906 -71.757812 9.421875 -72.21875 C 8.222656 -72.6875 6.421875 -72.921875 4.015625 -72.921875 L 3.328125 -72.921875 L 3.328125 -74.296875 L 24.265625 -74.296875 L 24.265625 -61.265625 L 24.53125 -61.265625 C 25.738281 -65.523438 27.703125 -68.96875 30.421875 -71.59375 C 33.148438 -74.226562 36.875 -75.546875 41.59375 -75.546875 C 47.875 -75.546875 52.46875 -73.515625 55.375 -69.453125 C 58.289062 -65.390625 59.75 -58.875 59.75 -49.90625 L 59.75 -11.5 C 59.75 -7.15625 60.234375 -4.382812 61.203125 -3.1875 C 62.171875 -1.988281 64.363281 -1.390625 67.78125 -1.390625 L 68.34375 -1.390625 L 68.34375 0 L 47.828125 0 L 47.828125 -51.296875 C 47.828125 -58.410156 47.0625 -63.675781 45.53125 -67.09375 C 44.007812 -70.507812 41.351562 -72.21875 37.5625 -72.21875 C 33.78125 -72.21875 30.640625 -70.253906 28.140625 -66.328125 C 25.640625 -62.398438 24.390625 -56.046875 24.390625 -47.265625 L 24.390625 -11.234375 C 24.390625 -6.984375 24.898438 -4.28125 25.921875 -3.125 C 26.941406 -1.96875 29.207031 -1.390625 32.71875 -1.390625 L 33.40625 -1.390625 L 33.40625 0 Z M 2.90625 0 "/></g></g></g><g fill="#ffffff" fill-opacity="1"><g transform="translate(186.601705, 149.053588)"><g><path d="M 32.015625 1.390625 C 23.796875 1.390625 17.375 -1.75 12.75 -8.03125 C 8.132812 -14.320312 5.828125 -24.03125 5.828125 -37.15625 C 5.828125 -62.75 14.648438 -75.546875 32.296875 -75.546875 C 40.796875 -75.546875 47.265625 -72.359375 51.703125 -65.984375 C 56.140625 -59.609375 58.359375 -50 58.359375 -37.15625 C 58.359375 -23.9375 56.140625 -14.207031 51.703125 -7.96875 C 47.265625 -1.726562 40.703125 1.390625 32.015625 1.390625 Z M 32.15625 0 C 37.425781 0 41.097656 -2.816406 43.171875 -8.453125 C 45.253906 -14.085938 46.296875 -23.65625 46.296875 -37.15625 C 46.296875 -46.207031 45.859375 -53.457031 44.984375 -58.90625 C 44.109375 -64.363281 42.628906 -68.269531 40.546875 -70.625 C 38.460938 -72.988281 35.617188 -74.171875 32.015625 -74.171875 C 28.597656 -74.171875 25.847656 -72.988281 23.765625 -70.625 C 21.691406 -68.269531 20.210938 -64.363281 19.328125 -58.90625 C 18.453125 -53.457031 18.015625 -46.207031 18.015625 -37.15625 C 18.015625 -23.65625 19.125 -14.085938 21.34375 -8.453125 C 23.5625 -2.816406 27.164062 0 32.15625 0 Z M 32.15625 0 "/></g></g></g><g fill="#ffffff" fill-opacity="1"><g transform="translate(237.755129, 149.053588)"><g/></g></g><g fill="#ffffff" fill-opacity="1"><g transform="translate(248.983699, 149.053588)"><g><path d="M 30.078125 0 L 10.8125 -90.65625 C 10.164062 -93.613281 9.285156 -95.507812 8.171875 -96.34375 C 7.066406 -97.175781 5.359375 -97.59375 3.046875 -97.59375 L 0.828125 -97.59375 L 0.828125 -98.984375 L 33.96875 -98.984375 L 33.96875 -97.59375 L 30.78125 -97.59375 C 28 -97.59375 26.097656 -97.222656 25.078125 -96.484375 C 24.066406 -95.742188 23.5625 -94.632812 23.5625 -93.15625 C 23.5625 -92.414062 23.65625 -91.328125 23.84375 -89.890625 C 24.03125 -88.460938 24.238281 -87.078125 24.46875 -85.734375 C 24.695312 -84.398438 24.859375 -83.5 24.953125 -83.03125 L 34.515625 -35.765625 C 34.972656 -33.734375 35.476562 -31.210938 36.03125 -28.203125 C 36.59375 -25.203125 37.148438 -22.109375 37.703125 -18.921875 C 38.253906 -15.734375 38.71875 -12.847656 39.09375 -10.265625 C 40.019531 -14.328125 40.894531 -18.25 41.71875 -22.03125 C 42.550781 -25.820312 43.429688 -29.707031 44.359375 -33.6875 L 58.921875 -98.5625 L 64.1875 -98.5625 L 79.703125 -37.703125 C 80.816406 -33.359375 81.8125 -29.316406 82.6875 -25.578125 C 83.5625 -21.835938 84.367188 -18.164062 85.109375 -14.5625 C 85.671875 -17.050781 86.179688 -19.425781 86.640625 -21.6875 C 87.097656 -23.957031 87.601562 -26.363281 88.15625 -28.90625 C 88.71875 -31.445312 89.414062 -34.472656 90.25 -37.984375 L 100.21875 -83.59375 C 100.6875 -85.90625 101.007812 -87.773438 101.1875 -89.203125 C 101.375 -90.640625 101.46875 -91.769531 101.46875 -92.59375 C 101.46875 -94.445312 101.003906 -95.742188 100.078125 -96.484375 C 99.160156 -97.222656 97.222656 -97.59375 94.265625 -97.59375 L 89.140625 -97.59375 L 89.140625 -98.984375 L 114.640625 -98.984375 L 114.640625 -97.59375 L 111.734375 -97.59375 C 109.054688 -97.59375 107.113281 -97.109375 105.90625 -96.140625 C 104.707031 -95.171875 103.691406 -92.789062 102.859375 -89 L 83.453125 0 L 77.078125 0 L 56.84375 -82.34375 L 38.40625 0 Z M 30.078125 0 "/></g></g></g><g fill="#ffffff" fill-opacity="1"><g transform="translate(351.290872, 149.053588)"><g><path d="M 32.15625 1.390625 C 23.5625 1.390625 17.023438 -1.910156 12.546875 -8.515625 C 8.066406 -15.128906 5.828125 -24.441406 5.828125 -36.453125 C 5.828125 -49.484375 8.019531 -59.253906 12.40625 -65.765625 C 16.789062 -72.285156 22.957031 -75.546875 30.90625 -75.546875 C 38.488281 -75.546875 44.3125 -72.539062 48.375 -66.53125 C 52.445312 -60.53125 54.484375 -52.125 54.484375 -41.3125 L 54.484375 -38.8125 L 17.75 -38.8125 C 17.75 -24.851562 19.179688 -14.941406 22.046875 -9.078125 C 24.910156 -3.210938 29.113281 -0.28125 34.65625 -0.28125 C 38.71875 -0.28125 41.953125 -1.617188 44.359375 -4.296875 C 46.765625 -6.972656 48.335938 -11.222656 49.078125 -17.046875 C 51.296875 -16.492188 52.40625 -15.0625 52.40625 -12.75 C 52.40625 -10.71875 51.6875 -8.613281 50.25 -6.4375 C 48.820312 -4.269531 46.601562 -2.421875 43.59375 -0.890625 C 40.59375 0.628906 36.78125 1.390625 32.15625 1.390625 Z M 17.75 -40.203125 L 42.703125 -40.203125 C 42.609375 -52.210938 41.703125 -60.875 39.984375 -66.1875 C 38.273438 -71.507812 35.25 -74.171875 30.90625 -74.171875 C 26.5625 -74.171875 23.328125 -71.535156 21.203125 -66.265625 C 19.078125 -60.992188 17.925781 -52.304688 17.75 -40.203125 Z M 17.75 -40.203125 "/></g></g></g><g fill="#ffffff" fill-opacity="1"><g transform="translate(398.008205, 149.053588)"><g><path d="M 32.15625 1.390625 C 23.5625 1.390625 17.023438 -1.910156 12.546875 -8.515625 C 8.066406 -15.128906 5.828125 -24.441406 5.828125 -36.453125 C 5.828125 -49.484375 8.019531 -59.253906 12.40625 -65.765625 C 16.789062 -72.285156 22.957031 -75.546875 30.90625 -75.546875 C 38.488281 -75.546875 44.3125 -72.539062 48.375 -66.53125 C 52.445312 -60.53125 54.484375 -52.125 54.484375 -41.3125 L 54.484375 -38.8125 L 17.75 -38.8125 C 17.75 -24.851562 19.179688 -14.941406 22.046875 -9.078125 C 24.910156 -3.210938 29.113281 -0.28125 34.65625 -0.28125 C 38.71875 -0.28125 41.953125 -1.617188 44.359375 -4.296875 C 46.765625 -6.972656 48.335938 -11.222656 49.078125 -17.046875 C 51.296875 -16.492188 52.40625 -15.0625 52.40625 -12.75 C 52.40625 -10.71875 51.6875 -8.613281 50.25 -6.4375 C 48.820312 -4.269531 46.601562 -2.421875 43.59375 -0.890625 C 40.59375 0.628906 36.78125 1.390625 32.15625 1.390625 Z M 17.75 -40.203125 L 42.703125 -40.203125 C 42.609375 -52.210938 41.703125 -60.875 39.984375 -66.1875 C 38.273438 -71.507812 35.25 -74.171875 30.90625 -74.171875 C 26.5625 -74.171875 23.328125 -71.535156 21.203125 -66.265625 C 19.078125 -60.992188 17.925781 -52.304688 17.75 -40.203125 Z M 17.75 -40.203125 "/></g></g></g><g fill="#ffffff" fill-opacity="1"><g transform="translate(444.725579, 149.053588)"><g><path d="M 1.9375 0 L 1.9375 -1.390625 L 2.765625 -1.390625 C 6.003906 -1.390625 8.289062 -1.921875 9.625 -2.984375 C 10.96875 -4.046875 11.640625 -6.796875 11.640625 -11.234375 L 11.640625 -94.265625 C 11.640625 -98.609375 10.96875 -101.3125 9.625 -102.375 C 8.289062 -103.4375 6.003906 -103.96875 2.765625 -103.96875 L 1.9375 -103.96875 L 1.9375 -105.359375 L 23.703125 -105.359375 L 23.703125 -49.078125 C 23.703125 -46.671875 23.675781 -43.753906 23.625 -40.328125 C 23.582031 -36.910156 23.515625 -33.910156 23.421875 -31.328125 L 40.34375 -54.890625 C 43.570312 -59.421875 45.71875 -62.722656 46.78125 -64.796875 C 47.84375 -66.878906 48.375 -68.382812 48.375 -69.3125 C 48.375 -70.695312 47.566406 -71.644531 45.953125 -72.15625 C 44.335938 -72.664062 41.40625 -72.921875 37.15625 -72.921875 L 37.15625 -74.296875 L 61.6875 -74.296875 L 61.6875 -72.921875 C 59.1875 -72.921875 57.054688 -72.363281 55.296875 -71.25 C 53.546875 -70.144531 51.425781 -67.878906 48.9375 -64.453125 L 37.421875 -48.515625 L 57.109375 -9.28125 C 58.773438 -5.957031 60.113281 -3.8125 61.125 -2.84375 C 62.144531 -1.875 63.441406 -1.390625 65.015625 -1.390625 L 65.703125 -1.390625 L 65.703125 0 L 65.015625 0 C 60.578125 0 57.039062 -0.253906 54.40625 -0.765625 C 51.769531 -1.273438 49.53125 -2.472656 47.6875 -4.359375 C 45.84375 -6.253906 43.992188 -9.238281 42.140625 -13.3125 L 30.359375 -38.671875 L 23.703125 -29.390625 L 23.703125 -11.234375 C 23.703125 -6.796875 24.414062 -4.046875 25.84375 -2.984375 C 27.28125 -1.921875 29.382812 -1.390625 32.15625 -1.390625 L 32.71875 -1.390625 L 32.71875 0 Z M 1.9375 0 "/></g></g></g></g></g><g transform="matrix(1, 0, 0, 1, 49, 144)"><g clip-path="url(#a281568e11)"><g fill="#ffffff" fill-opacity="1"><g transform="translate(0.416464, 268.800167)"><g><path d="M 7.015625 0 L 7.015625 -2.5 L 14.78125 -2.5 C 19.625 -2.5 22.710938 -3.625 24.046875 -5.875 C 25.378906 -8.132812 26.046875 -13.101562 26.046875 -20.78125 L 26.046875 -157.53125 C 26.046875 -165.382812 25.378906 -170.476562 24.046875 -172.8125 C 22.710938 -175.144531 19.625 -176.3125 14.78125 -176.3125 L 7.015625 -176.3125 L 7.015625 -178.828125 L 67.375 -178.828125 L 67.375 -176.3125 L 59.609375 -176.3125 C 54.765625 -176.3125 51.632812 -175.144531 50.21875 -172.8125 C 48.800781 -170.476562 48.09375 -165.382812 48.09375 -157.53125 L 48.09375 -20.78125 C 48.09375 -13.101562 48.800781 -8.132812 50.21875 -5.875 C 51.632812 -3.625 54.765625 -2.5 59.609375 -2.5 L 67.375 -2.5 L 67.375 0 Z M 7.015625 0 "/></g></g></g><g fill="#ffffff" fill-opacity="1"><g transform="translate(51.258799, 268.800167)"><g><path d="M 60.109375 0 L 15.78125 -164.296875 C 14.445312 -169.472656 12.898438 -172.769531 11.140625 -174.1875 C 9.390625 -175.601562 6.34375 -176.3125 2 -176.3125 L 0 -176.3125 L 0 -178.828125 L 56.609375 -178.828125 L 56.609375 -176.3125 L 49.34375 -176.3125 C 44.332031 -176.3125 41.195312 -175.8125 39.9375 -174.8125 C 38.6875 -173.8125 38.0625 -172.144531 38.0625 -169.8125 C 38.0625 -167.132812 38.394531 -164.207031 39.0625 -161.03125 C 39.738281 -157.863281 40.660156 -154.109375 41.828125 -149.765625 L 64.109375 -63.109375 C 66.285156 -54.765625 68.375 -46.25 70.375 -37.5625 C 72.375 -28.882812 74.046875 -21.375 75.390625 -15.03125 C 76.554688 -20.207031 77.679688 -24.960938 78.765625 -29.296875 C 79.847656 -33.640625 81.054688 -38.359375 82.390625 -43.453125 C 83.734375 -48.546875 85.320312 -54.847656 87.15625 -62.359375 L 106.9375 -144.015625 C 108.445312 -150.191406 109.578125 -155.113281 110.328125 -158.78125 C 111.078125 -162.457031 111.453125 -165.71875 111.453125 -168.5625 C 111.453125 -171.394531 110.695312 -173.394531 109.1875 -174.5625 C 107.6875 -175.726562 103.929688 -176.3125 97.921875 -176.3125 L 90.921875 -176.3125 L 90.921875 -178.828125 L 134.75 -178.828125 L 134.75 -176.3125 L 129.484375 -176.3125 C 124.640625 -176.3125 121.210938 -175.601562 119.203125 -174.1875 C 117.203125 -172.769531 115.617188 -169.472656 114.453125 -164.296875 L 74.390625 0 Z M 60.109375 0 "/></g></g></g></g></g><g transform="matrix(1, 0, 0, 1, 243, 193)"><g clip-path="url(#407ea9f4b9)"><g fill="#ffffff" fill-opacity="1"><g transform="translate(1.01928, 105.990653)"><g><path d="M 2.765625 0 L 2.765625 -0.984375 L 5.828125 -0.984375 C 7.742188 -0.984375 8.960938 -1.425781 9.484375 -2.3125 C 10.015625 -3.207031 10.28125 -5.171875 10.28125 -8.203125 L 10.28125 -62.21875 C 10.28125 -65.3125 10.015625 -67.316406 9.484375 -68.234375 C 8.960938 -69.160156 7.742188 -69.625 5.828125 -69.625 L 2.765625 -69.625 L 2.765625 -70.625 L 26.609375 -70.625 L 26.609375 -69.625 L 23.546875 -69.625 C 21.628906 -69.625 20.390625 -69.160156 19.828125 -68.234375 C 19.265625 -67.316406 18.984375 -65.3125 18.984375 -62.21875 L 18.984375 -8.203125 C 18.984375 -5.171875 19.265625 -3.207031 19.828125 -2.3125 C 20.390625 -1.425781 21.628906 -0.984375 23.546875 -0.984375 L 26.609375 -0.984375 L 26.609375 0 Z M 2.765625 0 "/></g></g></g><g fill="#ffffff" fill-opacity="1"><g transform="translate(29.505114, 105.990653)"><g><path d="M 2.078125 0 L 2.078125 -0.984375 L 2.671875 -0.984375 C 4.453125 -0.984375 5.785156 -1.148438 6.671875 -1.484375 C 7.566406 -1.816406 8.160156 -2.507812 8.453125 -3.5625 C 8.753906 -4.613281 8.90625 -6.160156 8.90625 -8.203125 L 8.90625 -45.09375 C 8.90625 -47.070312 8.753906 -48.554688 8.453125 -49.546875 C 8.160156 -50.535156 7.582031 -51.195312 6.71875 -51.53125 C 5.863281 -51.863281 4.582031 -52.03125 2.875 -52.03125 L 2.375 -52.03125 L 2.375 -53.015625 L 17.3125 -53.015625 L 17.3125 -43.71875 L 17.5 -43.71875 C 18.363281 -46.75 19.765625 -49.203125 21.703125 -51.078125 C 23.648438 -52.960938 26.304688 -53.90625 29.671875 -53.90625 C 34.148438 -53.90625 37.425781 -52.453125 39.5 -49.546875 C 41.582031 -46.648438 42.625 -42.003906 42.625 -35.609375 L 42.625 -8.203125 C 42.625 -5.109375 42.96875 -3.128906 43.65625 -2.265625 C 44.351562 -1.410156 45.921875 -0.984375 48.359375 -0.984375 L 48.765625 -0.984375 L 48.765625 0 L 34.125 0 L 34.125 -36.59375 C 34.125 -41.675781 33.578125 -45.4375 32.484375 -47.875 C 31.398438 -50.3125 29.503906 -51.53125 26.796875 -51.53125 C 24.097656 -51.53125 21.859375 -50.128906 20.078125 -47.328125 C 18.296875 -44.523438 17.40625 -39.992188 17.40625 -33.734375 L 17.40625 -8.015625 C 17.40625 -4.984375 17.765625 -3.050781 18.484375 -2.21875 C 19.210938 -1.394531 20.832031 -0.984375 23.34375 -0.984375 L 23.84375 -0.984375 L 23.84375 0 Z M 2.078125 0 "/></g></g></g><g fill="#ffffff" fill-opacity="1"><g transform="translate(79.553198, 105.990653)"><g><path d="M 18.796875 0.984375 C 15.097656 0.984375 12.289062 -0.117188 10.375 -2.328125 C 8.46875 -4.535156 7.515625 -8.507812 7.515625 -14.25 L 7.515625 -52.03125 L 1.578125 -52.03125 L 1.578125 -53.015625 C 3.691406 -53.078125 5.488281 -53.320312 6.96875 -53.75 C 8.457031 -54.1875 9.695312 -54.765625 10.6875 -55.484375 C 12 -56.535156 12.984375 -57.867188 13.640625 -59.484375 C 14.304688 -61.109375 14.800781 -62.972656 15.125 -65.078125 L 16.125 -65.078125 L 16.125 -53.015625 L 26.203125 -53.015625 L 26.203125 -52.03125 L 16.125 -52.03125 L 16.125 -11.375 C 16.125 -7.351562 16.597656 -4.566406 17.546875 -3.015625 C 18.503906 -1.460938 20.007812 -0.6875 22.0625 -0.6875 C 22.78125 -0.6875 23.519531 -0.734375 24.28125 -0.828125 C 25.039062 -0.929688 25.945312 -1.148438 27 -1.484375 L 27 -0.5 C 26.144531 -0.164062 25.007812 0.160156 23.59375 0.484375 C 22.175781 0.816406 20.578125 0.984375 18.796875 0.984375 Z M 18.796875 0.984375 "/></g></g></g><g fill="#ffffff" fill-opacity="1"><g transform="translate(107.346661, 105.990653)"><g><path d="M 22.953125 0.984375 C 16.816406 0.984375 12.148438 -1.367188 8.953125 -6.078125 C 5.753906 -10.796875 4.15625 -17.441406 4.15625 -26.015625 C 4.15625 -35.304688 5.71875 -42.273438 8.84375 -46.921875 C 11.976562 -51.578125 16.382812 -53.90625 22.0625 -53.90625 C 27.46875 -53.90625 31.617188 -51.757812 34.515625 -47.46875 C 37.421875 -43.1875 38.875 -37.1875 38.875 -29.46875 L 38.875 -27.6875 L 12.65625 -27.6875 C 12.65625 -17.738281 13.675781 -10.671875 15.71875 -6.484375 C 17.769531 -2.296875 20.773438 -0.203125 24.734375 -0.203125 C 27.628906 -0.203125 29.929688 -1.15625 31.640625 -3.0625 C 33.359375 -4.976562 34.484375 -8.015625 35.015625 -12.171875 C 36.597656 -11.773438 37.390625 -10.75 37.390625 -9.09375 C 37.390625 -7.644531 36.878906 -6.144531 35.859375 -4.59375 C 34.835938 -3.050781 33.253906 -1.734375 31.109375 -0.640625 C 28.960938 0.441406 26.242188 0.984375 22.953125 0.984375 Z M 12.65625 -28.6875 L 30.46875 -28.6875 C 30.394531 -37.257812 29.75 -43.441406 28.53125 -47.234375 C 27.3125 -51.023438 25.15625 -52.921875 22.0625 -52.921875 C 18.957031 -52.921875 16.644531 -51.039062 15.125 -47.28125 C 13.613281 -43.519531 12.789062 -37.320312 12.65625 -28.6875 Z M 12.65625 -28.6875 "/></g></g></g><g fill="#ffffff" fill-opacity="1"><g transform="translate(149.08635, 105.990653)"><g><path d="M 2.375 0 L 2.375 -0.984375 L 2.46875 -0.984375 C 5.175781 -0.984375 6.925781 -1.394531 7.71875 -2.21875 C 8.507812 -3.050781 8.90625 -4.984375 8.90625 -8.015625 L 8.90625 -45.09375 C 8.90625 -47.070312 8.753906 -48.554688 8.453125 -49.546875 C 8.160156 -50.535156 7.566406 -51.195312 6.671875 -51.53125 C 5.785156 -51.863281 4.453125 -52.03125 2.671875 -52.03125 L 2.375 -52.03125 L 2.375 -53.015625 L 17.40625 -53.015625 L 17.40625 -41.9375 L 17.609375 -41.9375 C 18.523438 -45.5 19.820312 -48.398438 21.5 -50.640625 C 23.1875 -52.878906 25.644531 -54 28.875 -54 C 31.445312 -54 33.390625 -53.320312 34.703125 -51.96875 C 36.023438 -50.625 36.6875 -48.863281 36.6875 -46.6875 C 36.6875 -42.46875 34.445312 -40.359375 29.96875 -40.359375 C 29.96875 -44.441406 29.6875 -47.273438 29.125 -48.859375 C 28.5625 -50.441406 27.457031 -51.234375 25.8125 -51.234375 C 23.375 -51.234375 21.378906 -49.398438 19.828125 -45.734375 C 18.273438 -42.078125 17.5 -36.722656 17.5 -29.671875 L 17.5 -8.015625 C 17.5 -5.972656 17.664062 -4.457031 18 -3.46875 C 18.332031 -2.476562 18.972656 -1.816406 19.921875 -1.484375 C 20.878906 -1.148438 22.347656 -0.984375 24.328125 -0.984375 L 25.421875 -0.984375 L 25.421875 0 Z M 2.375 0 "/></g></g></g><g fill="#ffffff" fill-opacity="1"><g transform="translate(186.07839, 105.990653)"><g><path d="M 2.078125 0 L 2.078125 -0.984375 L 2.671875 -0.984375 C 4.453125 -0.984375 5.785156 -1.148438 6.671875 -1.484375 C 7.566406 -1.816406 8.160156 -2.507812 8.453125 -3.5625 C 8.753906 -4.613281 8.90625 -6.160156 8.90625 -8.203125 L 8.90625 -45.09375 C 8.90625 -47.070312 8.753906 -48.554688 8.453125 -49.546875 C 8.160156 -50.535156 7.582031 -51.195312 6.71875 -51.53125 C 5.863281 -51.863281 4.582031 -52.03125 2.875 -52.03125 L 2.375 -52.03125 L 2.375 -53.015625 L 17.3125 -53.015625 L 17.3125 -43.71875 L 17.5 -43.71875 C 18.363281 -46.75 19.765625 -49.203125 21.703125 -51.078125 C 23.648438 -52.960938 26.304688 -53.90625 29.671875 -53.90625 C 34.148438 -53.90625 37.425781 -52.453125 39.5 -49.546875 C 41.582031 -46.648438 42.625 -42.003906 42.625 -35.609375 L 42.625 -8.203125 C 42.625 -5.109375 42.96875 -3.128906 43.65625 -2.265625 C 44.351562 -1.410156 45.921875 -0.984375 48.359375 -0.984375 L 48.765625 -0.984375 L 48.765625 0 L 34.125 0 L 34.125 -36.59375 C 34.125 -41.675781 33.578125 -45.4375 32.484375 -47.875 C 31.398438 -50.3125 29.503906 -51.53125 26.796875 -51.53125 C 24.097656 -51.53125 21.859375 -50.128906 20.078125 -47.328125 C 18.296875 -44.523438 17.40625 -39.992188 17.40625 -33.734375 L 17.40625 -8.015625 C 17.40625 -4.984375 17.765625 -3.050781 18.484375 -2.21875 C 19.210938 -1.394531 20.832031 -0.984375 23.34375 -0.984375 L 23.84375 -0.984375 L 23.84375 0 Z M 2.078125 0 "/></g></g></g><g fill="#ffffff" fill-opacity="1"><g transform="translate(236.126465, 105.990653)"><g><path d="M 15.828125 0.984375 C 12.328125 0.984375 9.457031 -0.296875 7.21875 -2.859375 C 4.976562 -5.429688 3.859375 -9.128906 3.859375 -13.953125 C 3.859375 -19.160156 5.304688 -22.945312 8.203125 -25.3125 C 11.109375 -27.6875 15.5625 -29.039062 21.5625 -29.375 L 27.984375 -29.671875 L 27.984375 -39.171875 C 27.984375 -44.378906 27.472656 -47.972656 26.453125 -49.953125 C 25.429688 -51.929688 23.671875 -52.921875 21.171875 -52.921875 C 18.660156 -52.921875 16.859375 -51.863281 15.765625 -49.75 C 14.679688 -47.632812 14.140625 -43.84375 14.140625 -38.375 C 9.390625 -38.375 7.015625 -40.222656 7.015625 -43.921875 C 7.015625 -46.953125 8.398438 -49.375 11.171875 -51.1875 C 13.941406 -53 17.535156 -53.90625 21.953125 -53.90625 C 26.765625 -53.90625 30.40625 -52.601562 32.875 -50 C 35.351562 -47.394531 36.59375 -42.992188 36.59375 -36.796875 L 36.59375 -8.609375 C 36.59375 -5.378906 36.921875 -3.300781 37.578125 -2.375 C 38.242188 -1.445312 39.53125 -0.984375 41.4375 -0.984375 L 41.640625 -0.984375 L 41.640625 0 L 28.1875 0 L 28.1875 -9.5 L 27.984375 -9.5 C 25.941406 -2.507812 21.890625 0.984375 15.828125 0.984375 Z M 18.6875 -1.28125 C 20.539062 -1.28125 22.15625 -2.003906 23.53125 -3.453125 C 24.914062 -4.910156 26.003906 -6.875 26.796875 -9.34375 C 27.585938 -11.820312 27.984375 -14.578125 27.984375 -17.609375 L 27.984375 -28.6875 L 23.4375 -28.390625 C 19.15625 -28.117188 16.253906 -26.828125 14.734375 -24.515625 C 13.222656 -22.210938 12.46875 -18.691406 12.46875 -13.953125 C 12.46875 -9.597656 12.992188 -6.394531 14.046875 -4.34375 C 15.097656 -2.300781 16.644531 -1.28125 18.6875 -1.28125 Z M 18.6875 -1.28125 "/></g></g></g><g fill="#ffffff" fill-opacity="1"><g transform="translate(280.042187, 105.990653)"><g><path d="M 18.796875 0.984375 C 15.097656 0.984375 12.289062 -0.117188 10.375 -2.328125 C 8.46875 -4.535156 7.515625 -8.507812 7.515625 -14.25 L 7.515625 -52.03125 L 1.578125 -52.03125 L 1.578125 -53.015625 C 3.691406 -53.078125 5.488281 -53.320312 6.96875 -53.75 C 8.457031 -54.1875 9.695312 -54.765625 10.6875 -55.484375 C 12 -56.535156 12.984375 -57.867188 13.640625 -59.484375 C 14.304688 -61.109375 14.800781 -62.972656 15.125 -65.078125 L 16.125 -65.078125 L 16.125 -53.015625 L 26.203125 -53.015625 L 26.203125 -52.03125 L 16.125 -52.03125 L 16.125 -11.375 C 16.125 -7.351562 16.597656 -4.566406 17.546875 -3.015625 C 18.503906 -1.460938 20.007812 -0.6875 22.0625 -0.6875 C 22.78125 -0.6875 23.519531 -0.734375 24.28125 -0.828125 C 25.039062 -0.929688 25.945312 -1.148438 27 -1.484375 L 27 -0.5 C 26.144531 -0.164062 25.007812 0.160156 23.59375 0.484375 C 22.175781 0.816406 20.578125 0.984375 18.796875 0.984375 Z M 18.796875 0.984375 "/></g></g></g><g fill="#ffffff" fill-opacity="1"><g transform="translate(307.83564, 105.990653)"><g><path d="M 12.765625 -63.703125 C 11.503906 -63.703125 10.445312 -64.113281 9.59375 -64.9375 C 8.738281 -65.757812 8.3125 -67.125 8.3125 -69.03125 C 8.3125 -71.007812 8.738281 -72.394531 9.59375 -73.1875 C 10.445312 -73.976562 11.503906 -74.375 12.765625 -74.375 C 14.015625 -74.375 15.082031 -73.976562 15.96875 -73.1875 C 16.863281 -72.394531 17.3125 -71.007812 17.3125 -69.03125 C 17.3125 -67.125 16.863281 -65.757812 15.96875 -64.9375 C 15.082031 -64.113281 14.015625 -63.703125 12.765625 -63.703125 Z M 1.6875 0 L 1.6875 -0.984375 L 2.96875 -0.984375 C 5.34375 -0.984375 6.941406 -1.410156 7.765625 -2.265625 C 8.585938 -3.128906 9 -5.175781 9 -8.40625 L 9 -44.703125 C 9 -47.804688 8.601562 -49.800781 7.8125 -50.6875 C 7.019531 -51.582031 5.503906 -52.03125 3.265625 -52.03125 L 2.28125 -52.03125 L 2.28125 -53.015625 L 17.5 -53.015625 L 17.5 -8.3125 C 17.5 -5.144531 17.910156 -3.128906 18.734375 -2.265625 C 19.566406 -1.410156 21.132812 -0.984375 23.4375 -0.984375 L 24.53125 -0.984375 L 24.53125 0 Z M 1.6875 0 "/></g></g></g><g fill="#ffffff" fill-opacity="1"><g transform="translate(332.661809, 105.990653)"><g><path d="M 22.84375 0.984375 C 16.976562 0.984375 12.394531 -1.253906 9.09375 -5.734375 C 5.800781 -10.222656 4.15625 -17.144531 4.15625 -26.5 C 4.15625 -44.769531 10.453125 -53.90625 23.046875 -53.90625 C 29.109375 -53.90625 33.722656 -51.628906 36.890625 -47.078125 C 40.054688 -42.523438 41.640625 -35.664062 41.640625 -26.5 C 41.640625 -17.070312 40.054688 -10.132812 36.890625 -5.6875 C 33.722656 -1.238281 29.039062 0.984375 22.84375 0.984375 Z M 22.953125 0 C 26.703125 0 29.316406 -2.007812 30.796875 -6.03125 C 32.285156 -10.050781 33.03125 -16.875 33.03125 -26.5 C 33.03125 -32.96875 32.71875 -38.144531 32.09375 -42.03125 C 31.46875 -45.925781 30.410156 -48.710938 28.921875 -50.390625 C 27.441406 -52.078125 25.414062 -52.921875 22.84375 -52.921875 C 20.40625 -52.921875 18.441406 -52.078125 16.953125 -50.390625 C 15.472656 -48.710938 14.421875 -45.925781 13.796875 -42.03125 C 13.171875 -38.144531 12.859375 -32.96875 12.859375 -26.5 C 12.859375 -16.875 13.648438 -10.050781 15.234375 -6.03125 C 16.816406 -2.007812 19.390625 0 22.953125 0 Z M 22.953125 0 "/></g></g></g><g fill="#ffffff" fill-opacity="1"><g transform="translate(377.566613, 105.990653)"><g><path d="M 2.078125 0 L 2.078125 -0.984375 L 2.671875 -0.984375 C 4.453125 -0.984375 5.785156 -1.148438 6.671875 -1.484375 C 7.566406 -1.816406 8.160156 -2.507812 8.453125 -3.5625 C 8.753906 -4.613281 8.90625 -6.160156 8.90625 -8.203125 L 8.90625 -45.09375 C 8.90625 -47.070312 8.753906 -48.554688 8.453125 -49.546875 C 8.160156 -50.535156 7.582031 -51.195312 6.71875 -51.53125 C 5.863281 -51.863281 4.582031 -52.03125 2.875 -52.03125 L 2.375 -52.03125 L 2.375 -53.015625 L 17.3125 -53.015625 L 17.3125 -43.71875 L 17.5 -43.71875 C 18.363281 -46.75 19.765625 -49.203125 21.703125 -51.078125 C 23.648438 -52.960938 26.304688 -53.90625 29.671875 -53.90625 C 34.148438 -53.90625 37.425781 -52.453125 39.5 -49.546875 C 41.582031 -46.648438 42.625 -42.003906 42.625 -35.609375 L 42.625 -8.203125 C 42.625 -5.109375 42.96875 -3.128906 43.65625 -2.265625 C 44.351562 -1.410156 45.921875 -0.984375 48.359375 -0.984375 L 48.765625 -0.984375 L 48.765625 0 L 34.125 0 L 34.125 -36.59375 C 34.125 -41.675781 33.578125 -45.4375 32.484375 -47.875 C 31.398438 -50.3125 29.503906 -51.53125 26.796875 -51.53125 C 24.097656 -51.53125 21.859375 -50.128906 20.078125 -47.328125 C 18.296875 -44.523438 17.40625 -39.992188 17.40625 -33.734375 L 17.40625 -8.015625 C 17.40625 -4.984375 17.765625 -3.050781 18.484375 -2.21875 C 19.210938 -1.394531 20.832031 -0.984375 23.34375 -0.984375 L 23.84375 -0.984375 L 23.84375 0 Z M 2.078125 0 "/></g></g></g><g fill="#ffffff" fill-opacity="1"><g transform="translate(427.614707, 105.990653)"><g><path d="M 15.828125 0.984375 C 12.328125 0.984375 9.457031 -0.296875 7.21875 -2.859375 C 4.976562 -5.429688 3.859375 -9.128906 3.859375 -13.953125 C 3.859375 -19.160156 5.304688 -22.945312 8.203125 -25.3125 C 11.109375 -27.6875 15.5625 -29.039062 21.5625 -29.375 L 27.984375 -29.671875 L 27.984375 -39.171875 C 27.984375 -44.378906 27.472656 -47.972656 26.453125 -49.953125 C 25.429688 -51.929688 23.671875 -52.921875 21.171875 -52.921875 C 18.660156 -52.921875 16.859375 -51.863281 15.765625 -49.75 C 14.679688 -47.632812 14.140625 -43.84375 14.140625 -38.375 C 9.390625 -38.375 7.015625 -40.222656 7.015625 -43.921875 C 7.015625 -46.953125 8.398438 -49.375 11.171875 -51.1875 C 13.941406 -53 17.535156 -53.90625 21.953125 -53.90625 C 26.765625 -53.90625 30.40625 -52.601562 32.875 -50 C 35.351562 -47.394531 36.59375 -42.992188 36.59375 -36.796875 L 36.59375 -8.609375 C 36.59375 -5.378906 36.921875 -3.300781 37.578125 -2.375 C 38.242188 -1.445312 39.53125 -0.984375 41.4375 -0.984375 L 41.640625 -0.984375 L 41.640625 0 L 28.1875 0 L 28.1875 -9.5 L 27.984375 -9.5 C 25.941406 -2.507812 21.890625 0.984375 15.828125 0.984375 Z M 18.6875 -1.28125 C 20.539062 -1.28125 22.15625 -2.003906 23.53125 -3.453125 C 24.914062 -4.910156 26.003906 -6.875 26.796875 -9.34375 C 27.585938 -11.820312 27.984375 -14.578125 27.984375 -17.609375 L 27.984375 -28.6875 L 23.4375 -28.390625 C 19.15625 -28.117188 16.253906 -26.828125 14.734375 -24.515625 C 13.222656 -22.210938 12.46875 -18.691406 12.46875 -13.953125 C 12.46875 -9.597656 12.992188 -6.394531 14.046875 -4.34375 C 15.097656 -2.300781 16.644531 -1.28125 18.6875 -1.28125 Z M 18.6875 -1.28125 "/></g></g></g><g clip-path="url(#74fb17ad47)"><g fill="#ffffff" fill-opacity="1"><g transform="translate(471.53039, 105.990653)"><g><path d="M 1.09375 0 L 1.09375 -0.984375 L 1.6875 -0.984375 C 3.46875 -0.984375 4.816406 -1.148438 5.734375 -1.484375 C 6.660156 -1.816406 7.300781 -2.492188 7.65625 -3.515625 C 8.019531 -4.535156 8.203125 -6.097656 8.203125 -8.203125 L 8.203125 -67.25 C 8.203125 -69.363281 7.972656 -70.914062 7.515625 -71.90625 C 7.054688 -72.894531 6.378906 -73.519531 5.484375 -73.78125 C 4.597656 -74.050781 3.53125 -74.1875 2.28125 -74.1875 L 1.09375 -74.1875 L 1.09375 -75.171875 L 16.8125 -75.171875 L 16.8125 -8.203125 C 16.8125 -6.097656 16.972656 -4.535156 17.296875 -3.515625 C 17.628906 -2.492188 18.257812 -1.816406 19.1875 -1.484375 C 20.113281 -1.148438 21.5 -0.984375 23.34375 -0.984375 L 23.9375 -0.984375 L 23.9375 0 Z M 1.09375 0 "/></g></g></g></g></g></g><g transform="matrix(1, 0, 0, 1, 163, 445)"><g clip-path="url(#04118b9585)"><g fill="#ffffff" fill-opacity="1"><g transform="translate(0.424474, 31.110807)"><g><path d="M 17.0625 0.578125 C 15.332031 0.578125 13.695312 0.320312 12.15625 -0.1875 C 10.625 -0.695312 9.222656 -1.421875 7.953125 -2.359375 C 6.679688 -3.296875 5.582031 -4.398438 4.65625 -5.671875 C 3.726562 -6.941406 3.007812 -8.34375 2.5 -9.875 C 2 -11.40625 1.75 -13.019531 1.75 -14.71875 C 1.75 -16.425781 2 -18.046875 2.5 -19.578125 C 3.007812 -21.117188 3.726562 -22.523438 4.65625 -23.796875 C 5.582031 -25.078125 6.679688 -26.179688 7.953125 -27.109375 C 9.222656 -28.035156 10.625 -28.753906 12.15625 -29.265625 C 13.695312 -29.773438 15.332031 -30.03125 17.0625 -30.03125 C 18.625 -30.03125 20.144531 -29.8125 21.625 -29.375 C 23.113281 -28.9375 24.484375 -28.273438 25.734375 -27.390625 C 26.984375 -26.503906 28.054688 -25.394531 28.953125 -24.0625 C 29.847656 -22.726562 30.472656 -21.175781 30.828125 -19.40625 L 26.9375 -19.40625 C 26.5 -20.988281 25.796875 -22.304688 24.828125 -23.359375 C 23.859375 -24.410156 22.703125 -25.195312 21.359375 -25.71875 C 20.015625 -26.25 18.550781 -26.515625 16.96875 -26.515625 C 15.363281 -26.515625 13.867188 -26.222656 12.484375 -25.640625 C 11.109375 -25.066406 9.90625 -24.25 8.875 -23.1875 C 7.84375 -22.132812 7.035156 -20.890625 6.453125 -19.453125 C 5.867188 -18.023438 5.578125 -16.445312 5.578125 -14.71875 C 5.578125 -12.988281 5.867188 -11.398438 6.453125 -9.953125 C 7.035156 -8.515625 7.84375 -7.273438 8.875 -6.234375 C 9.90625 -5.191406 11.109375 -4.382812 12.484375 -3.8125 C 13.867188 -3.238281 15.363281 -2.953125 16.96875 -2.953125 C 18.550781 -2.953125 20.007812 -3.210938 21.34375 -3.734375 C 22.6875 -4.265625 23.84375 -5.054688 24.8125 -6.109375 C 25.789062 -7.160156 26.492188 -8.472656 26.921875 -10.046875 L 30.828125 -10.046875 C 30.472656 -8.273438 29.851562 -6.722656 28.96875 -5.390625 C 28.082031 -4.054688 27.007812 -2.945312 25.75 -2.0625 C 24.5 -1.175781 23.128906 -0.515625 21.640625 -0.078125 C 20.160156 0.359375 18.632812 0.578125 17.0625 0.578125 Z M 17.0625 0.578125 "/></g></g></g><g fill="#ffffff" fill-opacity="1"><g transform="translate(36.116432, 31.110807)"><g><path d="M 15.59375 0.609375 C 13.882812 0.609375 12.289062 0.328125 10.8125 -0.234375 C 9.332031 -0.796875 8.039062 -1.601562 6.9375 -2.65625 C 5.84375 -3.707031 4.984375 -4.972656 4.359375 -6.453125 C 3.742188 -7.929688 3.4375 -9.578125 3.4375 -11.390625 L 3.4375 -29.40625 L 7.234375 -29.40625 L 7.234375 -11.671875 C 7.234375 -10.472656 7.414062 -9.347656 7.78125 -8.296875 C 8.15625 -7.242188 8.695312 -6.3125 9.40625 -5.5 C 10.125 -4.695312 11 -4.066406 12.03125 -3.609375 C 13.070312 -3.160156 14.257812 -2.9375 15.59375 -2.9375 C 16.90625 -2.9375 18.078125 -3.160156 19.109375 -3.609375 C 20.140625 -4.054688 21.015625 -4.675781 21.734375 -5.46875 C 22.453125 -6.269531 23 -7.195312 23.375 -8.25 C 23.75 -9.300781 23.9375 -10.425781 23.9375 -11.625 L 23.9375 -29.40625 L 27.765625 -29.40625 L 27.765625 -11.390625 C 27.765625 -9.617188 27.460938 -8 26.859375 -6.53125 C 26.265625 -5.0625 25.421875 -3.796875 24.328125 -2.734375 C 23.242188 -1.671875 21.957031 -0.847656 20.46875 -0.265625 C 18.988281 0.316406 17.363281 0.609375 15.59375 0.609375 Z M 15.59375 0.609375 "/></g></g></g><g fill="#ffffff" fill-opacity="1"><g transform="translate(70.40439, 31.110807)"><g><path d="M 13.15625 0.625 C 11.164062 0.625 9.441406 0.363281 7.984375 -0.15625 C 6.535156 -0.6875 5.335938 -1.390625 4.390625 -2.265625 C 3.453125 -3.148438 2.753906 -4.132812 2.296875 -5.21875 C 1.847656 -6.300781 1.625 -7.398438 1.625 -8.515625 L 5.4375 -8.515625 C 5.4375 -7.492188 5.742188 -6.535156 6.359375 -5.640625 C 6.972656 -4.742188 7.851562 -4.019531 9 -3.46875 C 10.144531 -2.925781 11.523438 -2.65625 13.140625 -2.65625 C 15.640625 -2.65625 17.5625 -3.113281 18.90625 -4.03125 C 20.25 -4.945312 20.921875 -6.3125 20.921875 -8.125 C 20.921875 -9.28125 20.582031 -10.207031 19.90625 -10.90625 C 19.238281 -11.613281 18.328125 -12.164062 17.171875 -12.5625 C 16.023438 -12.957031 14.71875 -13.265625 13.25 -13.484375 C 12.269531 -13.640625 11.265625 -13.84375 10.234375 -14.09375 C 9.210938 -14.34375 8.234375 -14.671875 7.296875 -15.078125 C 6.367188 -15.484375 5.53125 -15.984375 4.78125 -16.578125 C 4.039062 -17.179688 3.453125 -17.914062 3.015625 -18.78125 C 2.585938 -19.65625 2.375 -20.679688 2.375 -21.859375 C 2.375 -22.960938 2.570312 -24.003906 2.96875 -24.984375 C 3.363281 -25.972656 3.984375 -26.84375 4.828125 -27.59375 C 5.679688 -28.351562 6.78125 -28.945312 8.125 -29.375 C 9.476562 -29.8125 11.113281 -30.03125 13.03125 -30.03125 C 15.332031 -30.03125 17.269531 -29.671875 18.84375 -28.953125 C 20.414062 -28.242188 21.601562 -27.265625 22.40625 -26.015625 C 23.207031 -24.765625 23.609375 -23.316406 23.609375 -21.671875 L 19.765625 -21.671875 C 19.765625 -22.648438 19.503906 -23.515625 18.984375 -24.265625 C 18.472656 -25.015625 17.710938 -25.597656 16.703125 -26.015625 C 15.691406 -26.441406 14.453125 -26.65625 12.984375 -26.65625 C 11.660156 -26.65625 10.554688 -26.519531 9.671875 -26.25 C 8.796875 -25.976562 8.101562 -25.613281 7.59375 -25.15625 C 7.09375 -24.707031 6.734375 -24.191406 6.515625 -23.609375 C 6.304688 -23.035156 6.203125 -22.445312 6.203125 -21.84375 C 6.203125 -20.820312 6.519531 -19.972656 7.15625 -19.296875 C 7.800781 -18.628906 8.734375 -18.09375 9.953125 -17.6875 C 11.179688 -17.289062 12.675781 -16.96875 14.4375 -16.71875 C 15.414062 -16.5625 16.394531 -16.351562 17.375 -16.09375 C 18.363281 -15.832031 19.300781 -15.492188 20.1875 -15.078125 C 21.070312 -14.671875 21.859375 -14.15625 22.546875 -13.53125 C 23.242188 -12.90625 23.789062 -12.148438 24.1875 -11.265625 C 24.582031 -10.378906 24.78125 -9.332031 24.78125 -8.125 C 24.78125 -6.289062 24.3125 -4.71875 23.375 -3.40625 C 22.4375 -2.101562 21.097656 -1.101562 19.359375 -0.40625 C 17.628906 0.28125 15.5625 0.625 13.15625 0.625 Z M 13.15625 0.625 "/></g></g></g><g fill="#ffffff" fill-opacity="1"><g transform="translate(99.789153, 31.110807)"><g><path d="M 7.828125 0 L 4 0 L 4 -29.390625 L 7.828125 -29.390625 L 7.828125 -16.4375 L 24.796875 -16.4375 L 24.796875 -29.390625 L 28.65625 -29.390625 L 28.65625 0 L 24.796875 0 L 24.796875 -13 L 7.828125 -13 Z M 7.828125 0 "/></g></g></g><g fill="#ffffff" fill-opacity="1"><g transform="translate(135.52431, 31.110807)"><g><path d="M 7.828125 0 L 4 0 L 4 -29.390625 L 7.828125 -29.390625 Z M 7.828125 0 "/></g></g></g><g fill="#ffffff" fill-opacity="1"><g transform="translate(150.437089, 31.110807)"><g><path d="M 25.34375 -6.359375 L 25.34375 -29.390625 L 29.140625 -29.390625 L 29.140625 0 L 25.90625 0 L 7.828125 -22.96875 L 7.828125 0 L 4 0 L 4 -29.390625 L 7.21875 -29.390625 L 25.328125 -6.359375 Z M 25.34375 -6.359375 "/></g></g></g><g fill="#ffffff" fill-opacity="1"><g transform="translate(186.669045, 31.110807)"><g><path d="M 17.203125 0.5625 C 15.484375 0.5625 13.847656 0.304688 12.296875 -0.203125 C 10.753906 -0.710938 9.34375 -1.429688 8.0625 -2.359375 C 6.78125 -3.296875 5.664062 -4.398438 4.71875 -5.671875 C 3.78125 -6.941406 3.050781 -8.34375 2.53125 -9.875 C 2.019531 -11.40625 1.765625 -13.019531 1.765625 -14.71875 C 1.765625 -16.425781 2.019531 -18.046875 2.53125 -19.578125 C 3.050781 -21.117188 3.78125 -22.523438 4.71875 -23.796875 C 5.664062 -25.078125 6.78125 -26.179688 8.0625 -27.109375 C 9.34375 -28.035156 10.753906 -28.753906 12.296875 -29.265625 C 13.847656 -29.773438 15.484375 -30.03125 17.203125 -30.03125 C 18.753906 -30.03125 20.28125 -29.8125 21.78125 -29.375 C 23.289062 -28.9375 24.679688 -28.289062 25.953125 -27.4375 C 27.234375 -26.59375 28.332031 -25.550781 29.25 -24.3125 C 30.175781 -23.082031 30.832031 -21.679688 31.21875 -20.109375 L 27.328125 -20.109375 C 26.785156 -21.453125 26.015625 -22.601562 25.015625 -23.5625 C 24.015625 -24.519531 22.84375 -25.25 21.5 -25.75 C 20.15625 -26.257812 18.691406 -26.515625 17.109375 -26.515625 C 15.515625 -26.515625 14.019531 -26.222656 12.625 -25.640625 C 11.238281 -25.066406 10.015625 -24.25 8.953125 -23.1875 C 7.898438 -22.132812 7.078125 -20.882812 6.484375 -19.4375 C 5.890625 -18 5.59375 -16.425781 5.59375 -14.71875 C 5.59375 -12.988281 5.890625 -11.398438 6.484375 -9.953125 C 7.078125 -8.515625 7.898438 -7.273438 8.953125 -6.234375 C 10.015625 -5.191406 11.238281 -4.382812 12.625 -3.8125 C 14.019531 -3.238281 15.515625 -2.953125 17.109375 -2.953125 C 18.785156 -2.953125 20.265625 -3.1875 21.546875 -3.65625 C 22.828125 -4.125 23.925781 -4.769531 24.84375 -5.59375 C 25.769531 -6.425781 26.507812 -7.390625 27.0625 -8.484375 C 27.613281 -9.585938 27.992188 -10.765625 28.203125 -12.015625 L 16.984375 -12.015625 L 16.984375 -15.46875 L 32.171875 -15.46875 C 32.171875 -13.25 31.84375 -11.164062 31.1875 -9.21875 C 30.53125 -7.28125 29.5625 -5.578125 28.28125 -4.109375 C 27 -2.648438 25.425781 -1.503906 23.5625 -0.671875 C 21.707031 0.148438 19.585938 0.5625 17.203125 0.5625 Z M 17.203125 0.5625 "/></g></g></g><g fill="#ffffff" fill-opacity="1"><g transform="translate(223.712937, 31.110807)"><g/></g></g><g fill="#ffffff" fill-opacity="1"><g transform="translate(237.740116, 31.110807)"><g/></g></g><g fill="#ffffff" fill-opacity="1"><g transform="translate(251.775468, 31.110807)"><g><path d="M 28.828125 0 L 24.765625 0 L 21.96875 -6.65625 L 7.125 -6.65625 L 4.34375 0 L 0.28125 0 L 12.71875 -29.390625 L 16.40625 -29.390625 Z M 14.40625 -24 L 8.484375 -9.890625 L 20.609375 -9.890625 L 14.6875 -24 L 14.578125 -24.5 L 14.546875 -24.5 Z M 14.40625 -24 "/></g></g></g><g fill="#ffffff" fill-opacity="1"><g transform="translate(283.968229, 31.110807)"><g><path d="M 17.0625 0.578125 C 15.332031 0.578125 13.695312 0.320312 12.15625 -0.1875 C 10.625 -0.695312 9.222656 -1.421875 7.953125 -2.359375 C 6.679688 -3.296875 5.582031 -4.398438 4.65625 -5.671875 C 3.726562 -6.941406 3.007812 -8.34375 2.5 -9.875 C 2 -11.40625 1.75 -13.019531 1.75 -14.71875 C 1.75 -16.425781 2 -18.046875 2.5 -19.578125 C 3.007812 -21.117188 3.726562 -22.523438 4.65625 -23.796875 C 5.582031 -25.078125 6.679688 -26.179688 7.953125 -27.109375 C 9.222656 -28.035156 10.625 -28.753906 12.15625 -29.265625 C 13.695312 -29.773438 15.332031 -30.03125 17.0625 -30.03125 C 18.625 -30.03125 20.144531 -29.8125 21.625 -29.375 C 23.113281 -28.9375 24.484375 -28.273438 25.734375 -27.390625 C 26.984375 -26.503906 28.054688 -25.394531 28.953125 -24.0625 C 29.847656 -22.726562 30.472656 -21.175781 30.828125 -19.40625 L 26.9375 -19.40625 C 26.5 -20.988281 25.796875 -22.304688 24.828125 -23.359375 C 23.859375 -24.410156 22.703125 -25.195312 21.359375 -25.71875 C 20.015625 -26.25 18.550781 -26.515625 16.96875 -26.515625 C 15.363281 -26.515625 13.867188 -26.222656 12.484375 -25.640625 C 11.109375 -25.066406 9.90625 -24.25 8.875 -23.1875 C 7.84375 -22.132812 7.035156 -20.890625 6.453125 -19.453125 C 5.867188 -18.023438 5.578125 -16.445312 5.578125 -14.71875 C 5.578125 -12.988281 5.867188 -11.398438 6.453125 -9.953125 C 7.035156 -8.515625 7.84375 -7.273438 8.875 -6.234375 C 9.90625 -5.191406 11.109375 -4.382812 12.484375 -3.8125 C 13.867188 -3.238281 15.363281 -2.953125 16.96875 -2.953125 C 18.550781 -2.953125 20.007812 -3.210938 21.34375 -3.734375 C 22.6875 -4.265625 23.84375 -5.054688 24.8125 -6.109375 C 25.789062 -7.160156 26.492188 -8.472656 26.921875 -10.046875 L 30.828125 -10.046875 C 30.472656 -8.273438 29.851562 -6.722656 28.96875 -5.390625 C 28.082031 -4.054688 27.007812 -2.945312 25.75 -2.0625 C 24.5 -1.175781 23.128906 -0.515625 21.640625 -0.078125 C 20.160156 0.359375 18.632812 0.578125 17.0625 0.578125 Z M 17.0625 0.578125 "/></g></g></g><g fill="#ffffff" fill-opacity="1"><g transform="translate(319.660186, 31.110807)"><g><path d="M 28.828125 0 L 24.765625 0 L 21.96875 -6.65625 L 7.125 -6.65625 L 4.34375 0 L 0.28125 0 L 12.71875 -29.390625 L 16.40625 -29.390625 Z M 14.40625 -24 L 8.484375 -9.890625 L 20.609375 -9.890625 L 14.6875 -24 L 14.578125 -24.5 L 14.546875 -24.5 Z M 14.40625 -24 "/></g></g></g><g fill="#ffffff" fill-opacity="1"><g transform="translate(351.852947, 31.110807)"><g><path d="M 14.796875 0 L 4 0 L 4 -29.390625 L 14.734375 -29.390625 C 17.054688 -29.390625 19.164062 -29.035156 21.0625 -28.328125 C 22.96875 -27.628906 24.601562 -26.632812 25.96875 -25.34375 C 27.34375 -24.050781 28.394531 -22.503906 29.125 -20.703125 C 29.863281 -18.910156 30.234375 -16.914062 30.234375 -14.71875 C 30.234375 -12.507812 29.863281 -10.5 29.125 -8.6875 C 28.394531 -6.882812 27.347656 -5.332031 25.984375 -4.03125 C 24.617188 -2.738281 22.992188 -1.742188 21.109375 -1.046875 C 19.222656 -0.347656 17.117188 0 14.796875 0 Z M 7.75 -25.96875 L 7.75 -3.453125 L 14.71875 -3.453125 C 17.125 -3.453125 19.191406 -3.910156 20.921875 -4.828125 C 22.660156 -5.742188 24 -7.039062 24.9375 -8.71875 C 25.882812 -10.394531 26.359375 -12.363281 26.359375 -14.625 C 26.359375 -16.90625 25.882812 -18.894531 24.9375 -20.59375 C 24 -22.289062 22.65625 -23.609375 20.90625 -24.546875 C 19.15625 -25.492188 17.0625 -25.96875 14.625 -25.96875 Z M 7.75 -25.96875 "/></g></g></g><g fill="#ffffff" fill-opacity="1"><g transform="translate(386.940105, 31.110807)"><g><path d="M 23.71875 0 L 4 0 L 4 -29.390625 L 23.53125 -29.390625 L 23.53125 -25.90625 L 7.828125 -25.90625 L 7.828125 -16.59375 L 21.484375 -16.59375 L 21.484375 -13.3125 L 7.828125 -13.3125 L 7.828125 -3.453125 L 23.71875 -3.453125 Z M 23.71875 0 "/></g></g></g><g fill="#ffffff" fill-opacity="1"><g transform="translate(415.30967, 31.110807)"><g><path d="M 7.828125 0 L 4 0 L 4 -29.390625 L 7.296875 -29.390625 L 18.46875 -14.5625 L 18.5 -14.5625 L 29.640625 -29.390625 L 33 -29.390625 L 33 0 L 29.171875 0 L 29.171875 -23.203125 L 19.015625 -9.65625 L 17.90625 -9.65625 L 7.828125 -23.234375 Z M 7.828125 0 "/></g></g></g><g fill="#ffffff" fill-opacity="1"><g transform="translate(455.386423, 31.110807)"><g><path d="M 16.140625 0 L 12.3125 0 L 12.3125 -11.25 L 0.4375 -29.390625 L 4.953125 -29.390625 L 14.21875 -14.6875 L 14.234375 -14.6875 L 23.46875 -29.390625 L 28 -29.390625 L 16.125 -11.28125 Z M 16.140625 0 "/></g></g></g></g></g></svg>